<svg width="336" height="131" viewBox="0 0 336 131" fill="none" xmlns="http://www.w3.org/2000/svg">
<path d="M13.2886 0L322.289 68L322.289 131L13.2886 63.5L13.2886 0Z" fill="#EA4BC8"/>
<path d="M52.6949 30.1117C51.6423 29.6837 50.6003 29.3563 49.5689 29.1295C48.5688 28.9096 47.3121 28.8135 45.7989 28.8412C44.8971 30.7071 44.2401 32.5777 43.8279 34.4529C42.7628 39.2972 44.1015 43.4905 47.8442 47.0328C51.1387 45.7585 54.255 43.9536 57.193 41.618C57.0119 42.8888 56.6709 44.8124 56.1699 47.389C53.4586 48.6932 50.7863 49.5964 48.1531 50.0987C45.5198 50.6009 42.4061 50.4569 38.8119 49.6667L37.7337 49.4296C35.1888 47.5923 33.3649 45.3074 32.262 42.5748C31.1903 39.8491 30.9431 37.1736 31.5203 34.5483C32.2899 31.0479 34.3803 28.3949 37.7916 26.5893C41.2098 24.7524 45.6536 24.4353 51.1229 25.6378C54.1858 26.3112 57.3034 27.4062 60.4757 28.9228C59.5428 30.7818 58.5088 32.504 57.3739 34.0892C55.3637 33.8439 53.3116 33.491 51.2177 33.0306C51.7226 32.2242 52.215 31.2512 52.6949 30.1117ZM89.1712 59.3137L89.0888 59.6887L78.2126 57.2974C78.4792 55.4885 78.619 53.5861 78.6319 51.5903C76.2612 53.1333 73.6681 54.4962 70.8524 55.6792L59.9293 53.2776C59.9922 51.9481 60.2539 50.2363 60.7143 48.1424C61.1816 46.0171 61.9613 43.9606 63.0537 41.9728C65.4482 41.8112 67.8487 41.1759 70.255 40.0667C72.6925 38.9644 74.5794 37.61 75.9156 36.0034C75.3603 34.5053 74.7341 33.1062 74.037 31.8061L89.6013 35.2282C91.218 42.6279 91.0747 50.6565 89.1712 59.3137ZM78.5404 47.9825C78.3394 45.0223 77.854 42.1634 77.0842 39.4058C74.667 43.3958 72.9265 47.2888 71.8625 51.0849C74.367 50.4233 76.593 49.3892 78.5404 47.9825ZM125.417 43.1028C124.883 46.4256 124.214 49.9154 123.41 53.572C122.613 57.1974 121.502 61.5073 120.076 66.5017L115.575 65.5122C110.227 60.9287 105.636 55.2832 101.803 48.5757C101.593 50.7246 101.244 52.9086 100.756 55.1276C100.275 57.3153 99.6983 59.564 99.0267 61.8737L93.5417 60.6678C95.0119 56.961 96.1044 53.4824 96.819 50.2321C97.5405 46.9505 97.9546 44.3221 98.0612 42.3469C97.2234 40.1968 96.6065 38.3083 96.2107 36.6813L109.525 39.6086C110.343 42.1475 111.612 44.8675 113.333 47.7688C115.092 50.6457 116.856 52.9828 118.623 54.7803C119.626 50.2172 120.031 45.9159 119.838 41.8762L125.417 43.1028ZM149.065 51.3C148.012 50.872 146.97 50.5446 145.939 50.3179C144.939 50.098 143.682 50.0019 142.169 50.0296C141.267 51.8955 140.61 53.766 140.198 55.6412C139.133 60.4855 140.472 64.6788 144.214 68.2211C147.509 66.9469 150.625 65.1419 153.563 62.8064C153.382 64.0771 153.041 66.0008 152.54 68.5773C149.829 69.8815 147.156 70.7847 144.523 71.287C141.89 71.7892 138.776 71.6453 135.182 70.855L134.104 70.618C131.559 68.7806 129.735 66.4957 128.632 63.7631C127.56 61.0374 127.313 58.3619 127.89 55.7366C128.66 52.2362 130.75 49.5832 134.162 47.7776C137.58 45.9408 142.024 45.6236 147.493 46.8261C150.556 47.4995 153.673 48.5945 156.846 50.1111C155.913 51.9701 154.879 53.6923 153.744 55.2776C151.734 55.0322 149.682 54.6793 147.588 54.2189C148.093 53.4125 148.585 52.4396 149.065 51.3ZM175.649 64.0253L179.994 65.2755C180.431 65.3717 180.763 65.4282 180.988 65.4451L177.878 69.0861L177.456 68.9933C176.862 68.8628 176.053 68.521 175.028 67.9679C174.009 67.3837 173.266 67.04 172.797 66.9369C171.516 66.6552 170.318 67.2601 169.203 68.7516C168.742 70.2555 168.311 71.7663 167.912 73.284C169.468 73.9539 170.716 74.3919 171.653 74.598L172.075 74.6908C173.419 74.9862 174.547 74.923 175.459 74.5009C176.402 74.0858 177.214 73.1503 177.894 71.6944L183.468 73.1657C182.409 75.7505 181.275 77.9258 180.068 79.6917L157.049 74.6308C157.352 70.2742 157.96 66.0175 158.874 61.8608C159.788 57.7041 160.804 54.1268 161.922 51.1289L187.05 56.6536C185.745 59.9053 184.723 62.1706 183.983 63.4495C182.118 63.1379 180.417 62.8293 178.878 62.5239C179.287 61.86 179.559 61.2155 179.697 60.5905C180.027 59.0903 179.066 58.0928 176.816 57.5981C175.972 57.4126 175.014 57.3002 173.941 57.2609C172.601 60.0788 171.496 62.5717 170.626 64.7395C172.131 63.858 173.805 63.6199 175.649 64.0253ZM198.202 79.8946C199.596 80.5613 200.964 81.0424 202.308 81.3379C203.652 81.6334 204.78 81.5701 205.692 81.1481C206.642 80.7017 207.469 79.7696 208.174 78.3519L213.759 79.7763C212.671 82.4861 211.534 84.677 210.348 86.3492L187.329 81.2883C187.615 77.1573 188.229 72.9509 189.17 68.6692C190.111 64.3875 191.138 60.7633 192.249 57.7966L205.75 60.7651C201.949 68.2187 199.433 74.5952 198.202 79.8946ZM226.404 86.0951C227.797 86.7618 229.166 87.2429 230.509 87.5384C231.853 87.8339 232.981 87.7706 233.893 87.3486C234.843 86.9022 235.671 85.9701 236.376 84.5524L241.96 85.9768C240.873 88.6865 239.736 90.8775 238.549 92.5497L215.531 87.4888C215.816 83.3578 216.43 79.1514 217.371 74.8697C218.313 70.5879 219.339 66.9638 220.45 63.9971L233.951 66.9656C230.15 74.4192 227.634 80.7957 226.404 86.0951ZM263.503 83.3415L267.848 84.5916C268.286 84.6878 268.617 84.7444 268.843 84.7612L265.733 88.4022L265.311 88.3095C264.717 88.1789 263.907 87.8371 262.882 87.2841C261.864 86.6998 261.12 86.3561 260.652 86.253C259.37 85.9713 258.172 86.5762 257.058 88.0677C256.596 89.5716 256.166 91.0824 255.767 92.6001C257.323 93.27 258.57 93.708 259.508 93.9141L259.93 94.0069C261.274 94.3024 262.402 94.2391 263.313 93.817C264.257 93.4019 265.068 92.4664 265.749 91.0106L271.323 92.4818C270.263 95.0666 269.13 97.2419 267.922 99.0078L244.904 93.9469C245.207 89.5903 245.815 85.3336 246.729 81.1769C247.643 77.0202 248.659 73.4429 249.776 70.445L274.904 75.9697C273.6 79.2214 272.577 81.4867 271.837 82.7656C269.973 82.454 268.271 82.1454 266.733 81.84C267.141 81.1761 267.414 80.5317 267.551 79.9066C267.881 78.4064 266.921 77.409 264.671 76.9142C263.827 76.7287 262.869 76.6163 261.796 76.577C260.456 79.395 259.351 81.8878 258.481 84.0556C259.985 83.1741 261.659 82.936 263.503 83.3415ZM292.576 78.7247C298.608 80.0509 303.35 81.8798 306.802 84.2114C307.555 87.1947 307.629 90.0615 307.024 92.8118C306.248 96.3435 304.371 99.1418 301.394 101.207C297.076 104.156 291.932 104.975 285.963 103.662C283.9 103.209 281.154 102.359 277.726 101.114C277.888 94.5642 278.553 88.6327 279.722 83.3196C280.127 81.4756 280.66 79.496 281.322 77.3807C286.512 77.7682 290.263 78.2162 292.576 78.7247ZM293.209 82.5499C291.355 88.3019 290.146 92.4593 289.583 95.0221C289.026 97.5536 288.619 99.6267 288.363 101.241C290.25 100.706 291.896 99.4787 293.3 97.5596C294.743 95.6161 295.705 93.5505 296.186 91.3628C296.674 89.1438 296.667 87.2418 296.163 85.6567C295.691 84.0785 294.707 83.0429 293.209 82.5499Z" fill="#FFEAFA"/>
</svg>
