<svg width="148" height="43" viewBox="0 0 148 43" fill="none" xmlns="http://www.w3.org/2000/svg">
<path d="M26.4183 25.96L32.1183 26.32C32.6383 26.32 33.0383 26.3 33.3183 26.26L30.4983 31.54H29.9583C29.1983 31.54 28.1183 31.34 26.7183 30.94C25.3183 30.5 24.3183 30.28 23.7183 30.28C22.1583 30.28 20.8983 31.3 19.9383 33.34C19.7383 35.62 19.6383 37.42 19.6383 38.74C19.6383 40.06 19.6783 41.48 19.7583 43H6.73828C5.97828 37.88 5.59828 32.6 5.59828 27.16C5.59828 21.68 5.87828 16.98 6.43828 13.06H38.4783C37.7583 17.38 37.1183 20.4 36.5583 22.12L30.0783 22.42C30.4383 21.42 30.6183 20.56 30.6183 19.84C30.6183 17.92 29.1583 16.96 26.2383 16.96C24.9583 16.96 23.7783 17.06 22.6983 17.26C21.8183 20.82 21.0983 24.46 20.5383 28.18C22.1383 26.7 24.0983 25.96 26.4183 25.96Z" fill="#C3B1D8"/>
<path d="M25.8722 24.96L31.5722 25.32C32.0922 25.32 32.4922 25.3 32.7722 25.26L29.9522 30.54H29.4122C28.6522 30.54 27.5722 30.34 26.1722 29.94C24.7722 29.5 23.7722 29.28 23.1722 29.28C21.6122 29.28 20.3522 30.3 19.3922 32.34C19.1922 34.62 19.0922 36.42 19.0922 37.74C19.0922 39.06 19.1322 40.48 19.2122 42H6.19219C5.43219 36.88 5.05219 31.6 5.05219 26.16C5.05219 20.68 5.33219 15.98 5.89219 12.06H37.9322C37.2122 16.38 36.5722 19.4 36.0122 21.12L29.5322 21.42C29.8922 20.42 30.0722 19.56 30.0722 18.84C30.0722 16.92 28.6122 15.96 25.6922 15.96C24.4122 15.96 23.2322 16.06 22.1522 16.26C21.2722 19.82 20.5522 23.46 19.9922 27.18C21.5922 25.7 23.5522 24.96 25.8722 24.96Z" fill="#EA4BC8"/>
<path d="M24.78 23.96L30.48 24.32C31 24.32 31.4 24.3 31.68 24.26L28.86 29.54H28.32C27.56 29.54 26.48 29.34 25.08 28.94C23.68 28.5 22.68 28.28 22.08 28.28C20.52 28.28 19.26 29.3 18.3 31.34C18.1 33.62 18 35.42 18 36.74C18 38.06 18.04 39.48 18.12 41H5.1C4.34 35.88 3.96 30.6 3.96 25.16C3.96 19.68 4.24 14.98 4.8 11.06H36.84C36.12 15.38 35.48 18.4 34.92 20.12L28.44 20.42C28.8 19.42 28.98 18.56 28.98 17.84C28.98 15.92 27.52 14.96 24.6 14.96C23.32 14.96 22.14 15.06 21.06 15.26C20.18 18.82 19.46 22.46 18.9 26.18C20.5 24.7 22.46 23.96 24.78 23.96Z" fill="#FFEAFA"/>
</svg>
